HIERARCHY
ROOT Hips
{
	OFFSET 0.000000 0.000000 0.000000 
	CHANNELS 6 Xposition Yposition Zposition Zrotation Yrotation Xrotation
	JOINT LeftUpLeg
	{
		OFFSET 1.363060 -1.794630 0.839290 
		CHANNELS 3 Zrotation Yrotation Xrotation
		JOINT LeftLeg
		{
			OFFSET 2.448110 -6.726130 0.000000 
			CHANNELS 3 Zrotation Yrotation Xrotation
			JOINT LeftFoot
			{
				OFFSET 2.562200 -7.039590 0.000000 
				CHANNELS 3 Zrotation Yrotation Xrotation
				JOINT LeftToeBase
				{
					OFFSET 0.157640 -0.433110 2.322550 
					CHANNELS 3 Zrotation Yrotation Xrotation
					End Site
					{
						OFFSET 0.000000 0.000000 0.000000 
					}
				}
			}
		}
	}
	JOINT RightUpLeg
	{
		OFFSET -1.305520 -1.794630 0.839290 
		CHANNELS 3 Zrotation Yrotation Xrotation
		JOINT RightLeg
		{
			OFFSET -2.542530 -6.985550 0.000000 
			CHANNELS 3 Zrotation Yrotation Xrotation
			JOINT RightFoot
			{
				OFFSET -2.568260 -7.056230 0.000000 
				CHANNELS 3 Zrotation Yrotation Xrotation
				JOINT RightToeBase
				{
					OFFSET -0.164730 -0.452590 2.363150 
					CHANNELS 3 Zrotation Yrotation Xrotation
					End Site
					{
						OFFSET 0.000000 0.000000 0.000000 
					}
				}
			}
		}
	}
	JOINT Spine
	{
		OFFSET 0.028270 2.035590 -0.193380 
		CHANNELS 3 Zrotation Yrotation Xrotation
		JOINT Spine1
		{
			OFFSET 0.056720 2.048850 -0.042750 
			CHANNELS 3 Zrotation Yrotation Xrotation
			JOINT Neck1
			{
				OFFSET -0.054170 1.746240 0.172020 
				CHANNELS 3 Zrotation Yrotation Xrotation
				JOINT Head
				{
					OFFSET 0.104070 1.761360 -0.123970 
					CHANNELS 3 Zrotation Yrotation Xrotation
					End Site
					{
						OFFSET 0.000000 0.000000 0.000000 
					}
				}
			}
			JOINT LeftArm
			{
				OFFSET 3.362410 1.200890 -0.311210 
				CHANNELS 3 Zrotation Yrotation Xrotation
				JOINT LeftForeArm
				{
					OFFSET 4.983000 -0.000000 -0.000000 
					CHANNELS 3 Zrotation Yrotation Xrotation
					JOINT LeftHand
					{
						OFFSET 3.483560 -0.000000 -0.000000 
						CHANNELS 3 Zrotation Yrotation Xrotation
						JOINT LeftHandIndex1
						{
							OFFSET 0.715260 -0.000000 -0.000000 
							CHANNELS 3 Zrotation Yrotation Xrotation
							End Site
							{
								OFFSET 0.000000 0.000000 0.000000 
							}
						}
					}
				}
			}
			JOINT RightArm
			{
				OFFSET -3.136600 1.374050 -0.404650 
				CHANNELS 3 Zrotation Yrotation Xrotation
				JOINT RightForeArm
				{
					OFFSET -5.241900 -0.000000 -0.000000 
					CHANNELS 3 Zrotation Yrotation Xrotation
					JOINT RightHand
					{
						OFFSET -3.444170 -0.000000 -0.000000 
						CHANNELS 3 Zrotation Yrotation Xrotation
						JOINT RightHandIndex1
						{
							OFFSET -0.622530 -0.000000 -0.000000 
							CHANNELS 3 Zrotation Yrotation Xrotation
							End Site
							{
								OFFSET 0.000000 0.000000 0.000000 
							}
						}
					}
				}
			}
		}
	}
}
MOTION
Frames: 7
Frame Time: 0.041667
1.803341 17.753248 -36.528637 -1.970681 6.036772 5.780546 -21.051642 -6.223636 -11.887390 1.619804 9.763463 27.551385 1.829636 -7.131196 -11.646416 0.002300 0.309000 0.849000 24.887214 1.243485 -17.998077 -4.611462 -12.998374 39.465662 -1.069273 3.542781 -13.638383 -0.310800 -3.583800 9.908500 0.814139 -3.083114 -0.246683 4.966417 -2.148844 3.026576 2.119767 -5.825208 34.192469 0.750100 -3.044300 15.192800 -86.445445 6.301075 11.328822 19.142944 -30.917338 -5.044565 0.468405 -0.173937 9.435448 -7.125000 0.000000 0.000000 83.469927 1.538230 -8.307072 -8.745313 16.445600 -0.510375 1.453913 -0.161448 6.334950 7.125000 0.000000 0.000000 
1.801915 17.745607 -36.521302 -2.005976 6.048988 5.782217 -21.002749 -6.232101 -11.926440 1.641765 9.803676 27.675210 1.852302 -7.157591 -11.840970 0.000200 -0.098200 -0.269900 24.979455 1.050008 -17.469056 -4.400546 -12.704677 38.423987 -1.137462 4.232697 -13.551333 -0.451300 -4.309900 11.950200 0.784275 -3.092865 -0.235378 4.821139 -2.146320 3.070555 2.306932 -5.583430 33.967444 0.883800 -2.939600 14.943300 -86.329494 6.455551 11.760682 19.562512 -31.431338 -5.251243 0.470214 -0.165485 8.625760 -7.125000 0.000000 0.000000 83.568808 1.565906 -8.416871 -8.688557 16.343226 -0.472929 1.463088 -0.187718 6.477516 7.125000 0.000000 0.000000 
1.797432 17.742958 -36.512744 -2.006264 6.014125 5.750378 -20.995029 -6.185728 -11.982001 1.678205 9.865591 27.868361 1.885875 -7.245206 -12.058335 0.000100 -0.074900 -0.205700 25.094880 1.018671 -16.871488 -4.178284 -12.424345 37.417159 -1.136890 3.515698 -14.463711 -0.319000 -3.630700 10.039900 0.753649 -3.102559 -0.266004 4.739372 -2.139793 2.947134 2.461673 -5.259395 33.966913 1.013800 -2.807000 14.863400 -86.262537 6.425806 11.712382 19.673947 -31.571750 -5.328536 0.470670 -0.162282 8.162873 -7.125000 0.000000 0.000000 83.645841 1.353812 -8.134895 -8.697448 16.348203 -0.474920 1.464296 -0.179811 6.252255 7.125000 0.000000 0.000000 
1.789893 17.737457 -36.507141 -2.161423 6.101207 5.684957 -20.796099 -6.408174 -11.908766 1.705753 9.923195 28.050177 1.870544 -7.090528 -12.131593 0.001200 -0.226000 -0.621000 25.398125 0.890747 -16.281524 -3.975046 -12.156362 36.472277 -1.140295 3.018218 -15.143192 -0.309200 -3.575100 9.884400 0.767806 -3.046421 -0.232990 4.744877 -2.117116 3.025578 2.473503 -5.213684 33.939492 1.014900 -2.779300 14.867900 -86.256146 6.348947 12.152226 20.094645 -32.076880 -5.531620 0.469181 -0.157487 7.521276 -7.125000 0.000000 0.000000 83.700609 1.403968 -8.122313 -8.756732 16.448155 -0.479268 1.471831 -0.171305 5.939670 7.125000 0.000000 0.000000 
1.787143 17.736947 -36.496647 -2.293283 5.988749 5.873378 -20.644255 -6.742644 -12.083079 1.724180 9.971110 28.191190 1.838043 -6.925337 -12.048536 0.003800 0.396600 1.089700 25.668633 1.126211 -15.841044 -3.792342 -11.895332 35.560048 -1.180110 3.204933 -15.332125 -0.432100 -4.218300 11.691700 0.777795 -2.995758 -0.231406 4.722651 -2.094851 3.201957 2.503563 -5.274753 33.890095 1.036900 -2.812500 14.828900 -86.252593 6.149214 12.265971 20.283833 -32.308686 -5.626772 0.471102 -0.150523 7.062211 -7.125000 0.000000 0.000000 83.671562 1.276114 -7.548163 -8.827339 16.580492 -0.500093 1.476604 -0.154137 5.250372 7.125000 0.000000 0.000000 
1.778177 17.731242 -36.498990 -2.471689 6.026608 5.962524 -20.399493 -6.865021 -12.284090 1.750677 10.033867 28.384764 1.785863 -6.647345 -11.929850 0.002100 -0.294000 -0.807800 26.045700 1.331855 -15.429936 -3.617581 -11.656503 34.726198 -1.154280 2.763403 -15.621056 -0.345000 -3.774300 10.442700 0.777736 -2.986880 -0.237592 4.621991 -2.083247 3.209598 2.418236 -5.242951 33.926160 0.993000 -2.801400 14.854000 -86.264832 5.975028 12.200497 20.443763 -32.511581 -5.738828 0.473047 -0.146364 6.295164 -7.125000 0.000000 0.000000 83.815092 1.289505 -7.631387 -8.854580 16.625280 -0.504445 1.479208 -0.141518 5.105717 7.125000 0.000000 0.000000 
1.775834 17.732261 -36.488293 -2.597917 5.810738 5.967760 -20.260428 -6.733529 -12.376634 1.782870 10.091868 28.565839 1.809773 -6.627776 -12.200468 0.004200 -0.418500 -1.149900 26.305013 1.368947 -14.815836 -3.456502 -11.413708 33.911512 -1.164988 2.617892 -15.917375 -0.427300 -4.195100 11.626100 0.774853 -2.884636 -0.259477 4.596311 -2.024564 3.147343 2.566976 -5.461612 33.982531 1.108100 -2.926600 14.858300 -86.290658 6.018878 12.316125 20.714792 -32.835896 -5.898170 0.472538 -0.141700 5.763125 -7.125000 0.000000 0.000000 83.806094 1.210384 -7.927485 -8.788422 16.500991 -0.468480 1.484672 -0.161509 5.436319 7.125000 0.000000 0.000000 
